<svg width="20" height="20" viewBox="0 0 20 20" fill="none" xmlns="http://www.w3.org/2000/svg">
<path d="M10.0023 0C9.42555 0 8.85956 0.0518712 8.30949 0.145621L8.04123 2.98975C7.47234 3.14833 6.93393 3.37005 6.43031 3.65412L4.23223 1.83844C3.3037 2.49565 2.49099 3.30362 1.83392 4.23189L3.65416 6.42985C3.37041 6.93288 3.14375 7.47264 2.98523 8.04077L0.145621 8.30925C0.0518167 8.85948 0 9.42514 0 10.0021C0 10.58 0.0514939 11.1438 0.145621 11.6949L2.98523 11.9634C3.14377 12.5315 3.37042 13.0713 3.65416 13.5743L1.83849 15.7723C2.49439 16.6982 3.30169 17.51 4.22758 18.1659L6.43006 16.3456C6.93401 16.63 7.47167 16.8559 8.04098 17.0146L8.30946 19.8587C8.85953 19.9525 9.42552 19.9998 10.0023 19.9998C10.5791 19.9998 11.1405 19.9525 11.6906 19.8587L11.9591 17.0146C12.5284 16.8559 13.066 16.63 13.57 16.3456L15.7725 18.1659C16.6983 17.5099 17.5056 16.6981 18.1616 15.7723L16.3459 13.5743C16.6296 13.0713 16.8563 12.5315 17.0148 11.9634L19.8544 11.6949C19.9485 11.1438 20 10.58 20 10.0021C20 9.4251 19.9482 8.85944 19.8544 8.30925L17.0148 8.04077C16.8563 7.47264 16.6296 6.93288 16.3459 6.42985L18.1661 4.23189C17.5089 3.30362 16.6961 2.49565 15.7677 1.83844L13.5697 3.65412C13.0661 3.37003 12.5277 3.14832 11.9588 2.98975L11.6901 0.145621C11.1401 0.0518712 10.5786 0 10.0018 0H10.0023ZM10.0023 6.19352C12.1056 6.19352 13.8066 7.89913 13.8066 10.0024C13.8066 12.1057 12.1056 13.8113 10.0023 13.8113C7.89905 13.8113 6.19344 12.1057 6.19344 10.0024C6.19344 7.89913 7.89905 6.19352 10.0023 6.19352Z" fill="black" fill-opacity="0.2"/>
</svg>
